<svg width="21.000000" height="20.000000" viewBox="0 0 21 20" fill="none" xmlns="http://www.w3.org/2000/svg" xmlns:xlink="http://www.w3.org/1999/xlink">
	<desc>
			Created with Pixso.
	</desc>
	<defs/>
	<path id="Vector" d="M14 0C17.31 0 20 2.68 20 6C20 7.53 19.41 8.98 18.39 10.08L18.2 10.27L9.47 19L9.42 19.05L9.37 19.09C8.7 19.67 7.84 20 6.94 20C4.88 20 3.22 18.33 3.22 16.27C3.22 15.37 3.54 14.52 4.11 13.85L4.26 13.69L4.28 13.68L11.57 6.37C11.96 5.98 12.59 5.98 12.98 6.37C13.37 6.76 13.37 7.4 12.98 7.79L5.69 15.09L5.68 15.1C5.38 15.42 5.22 15.83 5.22 16.27C5.22 17.22 5.99 18 6.94 18C7.32 18 7.68 17.87 7.97 17.65L8.09 17.55L8.09 17.55L16.8 8.85L16.95 8.69C17.62 7.96 18 7.01 18 6C18 3.79 16.2 2 14 2C12.93 2 11.94 2.41 11.2 3.13L11.05 3.29L11.03 3.31L1.7 12.64C1.31 13.03 0.68 13.03 0.29 12.64C-0.1 12.25 -0.1 11.61 0.29 11.22L9.6 1.91L9.64 1.87C10.77 0.68 12.33 0 14 0Z" fill="#1469D9" fill-opacity="1.000000" fill-rule="evenodd"/>
</svg>
