<svg width="100.000000" height="100.000000" viewBox="0 0 100 100" fill="none" xmlns="http://www.w3.org/2000/svg" xmlns:xlink="http://www.w3.org/1999/xlink">
	<desc>
			Created with Pixso.
	</desc>
	<defs/>
	<path id="Vector" d="M47.54 59.14L47.08 59.54L8.59 97.32C11.34 99.02 14.58 100 18.05 100L81.94 100C85.41 100 88.65 99.02 91.4 97.32L52.91 59.54L52.39 59.11C50.94 58.08 48.98 58.09 47.54 59.14ZM100 18.05C100 8.08 91.91 0 81.94 0L18.05 0C8.08 0 0 8.08 0 18.05L0 81.94C0 85.42 0.98 88.68 2.69 91.43L41.24 53.59L41.99 52.91C46.63 49.04 53.41 49.05 58.04 52.94L58.75 53.59L97.3 91.43C99.01 88.68 100 85.42 100 81.94L100 18.05ZM68.05 43.05C61.91 43.05 56.94 38.08 56.94 31.94C56.94 25.8 61.91 20.83 68.05 20.83C74.19 20.83 79.16 25.8 79.16 31.94C79.16 38.08 74.19 43.05 68.05 43.05Z" fill="#AFB2C6" fill-opacity="1.000000" fill-rule="nonzero"/>
</svg>
