<svg width="30.000000" height="35.000000" viewBox="0 0 30 35" fill="none" xmlns="http://www.w3.org/2000/svg" xmlns:xlink="http://www.w3.org/1999/xlink">
	<desc>
			Created with Pixso.
	</desc>
	<defs/>
	<path id="Vector" d="M20 6.66L20 8.33L21.25 8.33C24.24 8.33 26.66 10.75 26.66 13.75L26.66 17.53C25.72 16.97 24.96 16.29 24.48 15.81C23.4 14.72 21.58 14.72 20.5 15.81C19.61 16.69 17.81 18.21 15.7 18.51C15.59 18.52 15.49 18.54 15.38 18.57C14.93 17.92 14.18 17.5 13.33 17.5C11.95 17.5 10.83 18.61 10.83 20C10.83 21.38 11.95 22.5 13.33 22.5L13.33 25.87C13.33 28 13.92 29.96 15.05 31.66L5.41 31.66C2.42 31.66 0 29.24 0 26.25L0 13.75C0 10.75 2.42 8.33 5.41 8.33L6.66 8.33L6.66 6.66C6.66 2.98 9.65 0 13.33 0C17.01 0 20 2.98 20 6.66ZM9.16 6.66L9.16 8.33L17.5 8.33L17.5 6.66C17.5 4.36 15.63 2.5 13.33 2.5C11.03 2.5 9.16 4.36 9.16 6.66ZM23.31 16.99C24.4 18.07 26.49 19.8 29.06 20.15C29.57 20.22 30 20.62 30 21.13L30 25.86C30 32.22 24.03 34.53 22.74 34.96C22.58 35.01 22.41 35.01 22.25 34.96C20.96 34.53 15 32.22 15 25.86L15 21.13C15 20.63 15.42 20.22 15.93 20.15C18.5 19.8 20.59 18.07 21.68 16.99C22.11 16.55 22.88 16.55 23.31 16.99Z" fill="#FFFFFF" fill-opacity="1.000000" fill-rule="nonzero"/>
</svg>
