<svg width="40.000000" height="40.000000" viewBox="0 0 40 40" fill="none" xmlns="http://www.w3.org/2000/svg" xmlns:xlink="http://www.w3.org/1999/xlink">
	<desc>
			Created with Pixso.
	</desc>
	<defs/>
	<path id="Vector" d="M17.37 1.68C18.02 1.03 19.07 1.03 19.72 1.68L23.89 5.85C24.2 6.16 24.38 6.59 24.38 7.03C24.38 7.47 24.2 7.89 23.89 8.21L19.72 12.37C19.07 13.02 18.02 13.02 17.37 12.37C16.72 11.72 16.72 10.67 17.37 10.02L18.63 8.75C12.73 9.34 8.13 14.31 8.13 20.36C8.13 26.8 13.35 32.03 19.79 32.03C25.74 32.03 30.65 27.58 31.37 21.82C31.49 20.91 32.32 20.26 33.23 20.37C34.14 20.49 34.79 21.32 34.68 22.23C33.76 29.64 27.45 35.36 19.79 35.36C11.51 35.36 4.8 28.65 4.8 20.36C4.8 12.44 10.94 5.95 18.73 5.4L17.37 4.04C16.72 3.39 16.72 2.33 17.37 1.68ZM26.81 15.02C27.46 15.67 27.46 16.72 26.81 17.37L19.31 24.87C18.66 25.52 17.6 25.52 16.95 24.87L13.62 21.54C12.97 20.89 12.97 19.83 13.62 19.18C14.27 18.53 15.32 18.53 15.97 19.18L18.13 21.34L24.45 15.02C25.1 14.37 26.16 14.37 26.81 15.02Z" fill="#FFFFFF" fill-opacity="1.000000" fill-rule="nonzero"/>
</svg>
