<svg width="29.991211" height="33.333374" viewBox="0 0 29.9912 33.3334" fill="none" xmlns="http://www.w3.org/2000/svg" xmlns:xlink="http://www.w3.org/1999/xlink">
	<desc>
			Created with Pixso.
	</desc>
	<defs/>
	<path id="Vector" d="M14.99 7.5C17.06 7.5 18.74 5.82 18.74 3.75C18.74 1.67 17.06 0 14.99 0C12.92 0 11.24 1.67 11.24 3.75C11.24 5.82 12.92 7.5 14.99 7.5ZM5.24 3.63C3.34 2.82 1.13 3.7 0.3 5.6C-0.52 7.5 0.36 9.71 2.27 10.52L7.31 12.66C7.93 12.92 8.33 13.53 8.33 14.2L8.33 19.26L5.2 28.36C4.52 30.31 5.56 32.45 7.52 33.12C9.48 33.8 11.61 32.76 12.29 30.8L14.6 24.09C14.73 23.72 15.26 23.72 15.38 24.09L17.69 30.8C18.37 32.76 20.5 33.8 22.46 33.12C24.42 32.45 25.46 30.31 24.79 28.36L21.66 19.26L21.66 14.19C21.66 13.52 22.06 12.92 22.68 12.66L27.71 10.52C29.62 9.71 30.5 7.5 29.68 5.6C28.85 3.7 26.65 2.82 24.74 3.63L22.06 4.76C21.5 5 21.1 5.47 20.91 5.98C20 8.37 17.69 10.07 14.99 10.07C12.29 10.07 9.98 8.37 9.08 5.98C8.88 5.47 8.49 5 7.92 4.76L5.24 3.63Z" fill="#FFFFFF" fill-opacity="1.000000" fill-rule="nonzero"/>
</svg>
