<svg width="82.281677" height="91.828125" viewBox="0 0 82.2817 91.8281" fill="none" xmlns="http://www.w3.org/2000/svg" xmlns:xlink="http://www.w3.org/1999/xlink">
	<desc>
			Created with Pixso.
	</desc>
	<defs>
		<filter id="filter_2_167_dd" x="0.000000" y="0.000000" width="82.281677" height="91.828125" filterUnits="userSpaceOnUse" color-interpolation-filters="sRGB">
			<feFlood flood-opacity="0" result="BackgroundImageFix"/>
			<feColorMatrix in="SourceAlpha" type="matrix" values="0 0 0 0 0 0 0 0 0 0 0 0 0 0 0 0 0 0 127 0" result="hardAlpha"/>
			<feOffset dx="0" dy="0"/>
			<feGaussianBlur stdDeviation="6.66667"/>
			<feComposite in2="hardAlpha" operator="out" k2="-1" k3="1"/>
			<feColorMatrix type="matrix" values="0 0 0 0 0 0 0 0 0 0.27843 0 0 0 0 1 0 0 0 0.5 0"/>
			<feBlend mode="normal" in2="BackgroundImageFix" result="effect_dropShadow_1"/>
			<feBlend mode="normal" in="SourceGraphic" in2="effect_dropShadow_1" result="shape"/>
		</filter>
	</defs>
	<g filter="url(#filter_2_167_dd)">
		<path id="number" d="M40.9 69.82C52.29 69.82 60.32 64.03 60.28 55.82C60.32 50.12 56.5 46.09 49 45.28L49 44.92C54.54 44.32 58.59 40.75 58.54 35.54C58.59 27.7 51.32 22 41 22C30.45 22 22.95 28.03 22.9 36.54L35 36.54C35.04 33.73 37.53 31.73 41 31.73C44.18 31.73 46.4 33.67 46.37 36.37C46.4 39.18 43.78 41.18 40 41.18L35.28 41.18L35.28 49.92L40 49.92C44.09 49.92 46.95 51.92 46.9 54.73C46.95 57.62 44.5 59.64 41 59.64C37.37 59.64 34.78 57.7 34.73 55L22 55C22.04 63.68 29.89 69.82 40.9 69.82Z" stroke="#1469D9" stroke-opacity="1.000000" stroke-width="2.000000"/>
	</g>
</svg>
