<svg width="80.625122" height="91.187500" viewBox="0 0 80.6251 91.1875" fill="none" xmlns="http://www.w3.org/2000/svg" xmlns:xlink="http://www.w3.org/1999/xlink">
	<desc>
			Created with Pixso.
	</desc>
	<defs>
		<filter id="filter_2_165_dd" x="0.000000" y="0.000000" width="80.625122" height="91.187500" filterUnits="userSpaceOnUse" color-interpolation-filters="sRGB">
			<feFlood flood-opacity="0" result="BackgroundImageFix"/>
			<feColorMatrix in="SourceAlpha" type="matrix" values="0 0 0 0 0 0 0 0 0 0 0 0 0 0 0 0 0 0 127 0" result="hardAlpha"/>
			<feOffset dx="0" dy="0"/>
			<feGaussianBlur stdDeviation="6.66667"/>
			<feComposite in2="hardAlpha" operator="out" k2="-1" k3="1"/>
			<feColorMatrix type="matrix" values="0 0 0 0 0 0 0 0 0 0.27843 0 0 0 0 1 0 0 0 0.5 0"/>
			<feBlend mode="normal" in2="BackgroundImageFix" result="effect_dropShadow_1"/>
			<feBlend mode="normal" in="SourceGraphic" in2="effect_dropShadow_1" result="shape"/>
		</filter>
	</defs>
	<g filter="url(#filter_2_165_dd)">
		<path id="number" d="M22.9 69.18L58.62 69.18L58.62 59.09L40.45 59.09L40.45 58.82L44.81 55.18C55.42 46.34 58.12 41.75 58.12 36.37C58.12 27.68 51.01 22 39.85 22C29.01 22 21.96 28.03 22 37.82L34 37.82C33.96 33.92 36.35 31.73 39.85 31.73C43.32 31.73 45.81 33.89 45.81 37.45C45.81 40.75 43.7 42.89 40.26 45.73L22.9 60.09L22.9 69.18Z" stroke="#1469D9" stroke-opacity="1.000000" stroke-width="2.000000"/>
	</g>
</svg>
