<svg width="1082.000000" height="1832.000000" viewBox="0 0 1082 1832" fill="none" xmlns="http://www.w3.org/2000/svg" xmlns:xlink="http://www.w3.org/1999/xlink">
	<desc>
			Created with Pixso.
	</desc>
	<defs>
		<filter id="filter_109_261_dd" x="0.000000" y="0.000000" width="1082.000000" height="1832.000000" filterUnits="userSpaceOnUse" color-interpolation-filters="sRGB">
			<feFlood flood-opacity="0" result="BackgroundImageFix"/>
			<feColorMatrix in="SourceAlpha" type="matrix" values="0 0 0 0 0 0 0 0 0 0 0 0 0 0 0 0 0 0 127 0" result="hardAlpha"/>
			<feOffset dx="0" dy="0"/>
			<feGaussianBlur stdDeviation="6.66667"/>
			<feComposite in2="hardAlpha" operator="out" k2="-1" k3="1"/>
			<feColorMatrix type="matrix" values="0 0 0 0 0 0 0 0 0 0.27843 0 0 0 0 1 0 0 0 0.5 0"/>
			<feBlend mode="normal" in2="BackgroundImageFix" result="effect_dropShadow_1"/>
			<feBlend mode="normal" in="SourceGraphic" in2="effect_dropShadow_1" result="shape"/>
		</filter>
	</defs>
	<g filter="url(#filter_109_261_dd)">
		<path id="Line" d="M1010 1811C1010 1811.56 1010.44 1812 1011 1812C1011.56 1812 1012 1811.56 1012 1811L1012 1312.45Q1012 1305.63 1009.59 1299.8Q1007.18 1293.97 1002.35 1289.14Q997.52 1284.31 991.7 1281.88Q985.87 1279.46 979.04 1279.44L693.04 1279.05Q686.2 1279.04 680.36 1281.44Q674.52 1283.86 669.68 1288.68Q664.84 1293.53 662.42 1299.37Q660 1305.19 660 1312.05L660 1678Q660 1684.42 657.73 1689.9Q655.46 1695.38 650.92 1699.92Q646.38 1704.46 640.9 1706.73Q635.42 1709 629 1709L103 1709Q96.57 1709 91.09 1706.73Q85.61 1704.46 81.07 1699.92Q76.53 1695.38 74.26 1689.9Q72 1684.42 72 1678L72 1104.5L72.42 910.93Q72.44 904.52 74.71 899.05Q76.99 893.58 81.53 889.05Q86.07 884.52 91.54 882.26Q97.01 880 103.42 880L129 880Q135.83 880 141.66 877.58Q147.5 875.16 152.33 870.33Q157.16 865.5 159.58 859.66Q162 853.83 162 847L162 531Q162 524.58 164.26 519.1Q166.53 513.62 171.08 509.08Q175.61 504.54 181.09 502.27Q186.57 500 193 500L1029 500Q1035.84 500 1041.67 497.58Q1047.5 495.16 1052.32 490.33Q1057.17 485.49 1059.59 479.66Q1062 473.83 1062 467L1062 310.99Q1062 304.16 1059.57 298.33Q1057.17 292.49 1052.32 287.66Q1047.5 282.83 1041.67 280.41Q1035.84 277.99 1029 277.99L53 278Q46.57 278 41.09 275.72Q35.61 273.46 31.07 268.92Q26.54 264.38 24.27 258.9Q22 253.42 22 247L22 57Q22 50.58 24.26 45.1Q26.53 39.62 31.07 35.07Q35.61 30.54 41.09 28.27Q46.57 26 53 26L517.12 26Q517.4 27.43 518.5 28.53Q519.96 30 522.03 30Q524.1 30 525.57 28.53Q527.03 27.07 527.03 25Q527.03 22.92 525.57 21.46Q524.1 20 522.03 20Q519.96 20 518.5 21.46Q517.4 22.56 517.12 24L53 24Q46.16 24 40.33 26.41Q34.49 28.83 29.66 33.66Q24.83 38.49 22.41 44.32Q20 50.16 20 57L20 247Q20 253.83 22.41 259.67Q24.83 265.5 29.66 270.33Q34.49 275.16 40.33 277.58Q46.16 280 53 280L1029 279.99Q1035.42 280 1040.91 282.27Q1046.38 284.54 1050.92 289.07Q1055.46 293.62 1057.73 299.1Q1060 304.58 1060 310.99L1060 467Q1060 473.41 1057.73 478.89Q1055.46 484.37 1050.92 488.92Q1046.38 493.45 1040.9 495.72Q1035.42 498 1029 498L193 498Q186.16 498 180.32 500.41Q174.49 502.83 169.66 507.66Q164.83 512.49 162.41 518.32Q160 524.16 160 531L160 847Q160 853.42 157.73 858.9Q155.46 864.38 150.92 868.92Q146.38 873.46 140.9 875.73Q135.42 878 129 878L103.42 878Q96.6 878 90.78 880.4Q84.95 882.81 80.12 887.64Q75.28 892.46 72.86 898.28Q70.44 904.1 70.42 910.92L70 1104.5L70 1678Q70 1684.83 72.41 1690.67Q74.83 1696.5 79.66 1701.33Q84.49 1706.17 90.32 1708.58Q96.16 1711 103 1711L629 1711Q635.83 1711 641.67 1708.58Q647.5 1706.17 652.33 1701.33Q657.16 1696.5 659.58 1690.67Q662 1684.83 662 1678L662 1312.05Q662 1305.62 664.27 1300.14Q666.54 1294.65 671.09 1290.11Q675.64 1285.56 681.12 1283.3Q686.61 1281.04 693.04 1281.05L979.04 1281.44Q985.45 1281.46 990.93 1283.74Q996.4 1286.01 1000.94 1290.55Q1005.47 1295.09 1007.73 1300.56Q1010 1306.04 1010 1312.45L1010 1811Z" fill="#1469D9" fill-opacity="1.000000" fill-rule="evenodd"/>
	</g>
</svg>
